<?xml version="1.0" standalone="no"?>
<!DOCTYPE svg PUBLIC "-//W3C//DTD SVG 20010904//EN"
 "http://www.w3.org/TR/2001/REC-SVG-20010904/DTD/svg10.dtd">
<svg version="1.0" xmlns="http://www.w3.org/2000/svg"
 width="225.000000pt" height="225.000000pt" viewBox="0 0 225.000000 225.000000"
 preserveAspectRatio="xMidYMid meet">
<metadata>
Created by potrace 1.16, written by Peter Selinger 2001-2019
</metadata>
<g transform="translate(0.000000,225.000000) scale(0.100000,-0.100000)"
fill="#000000" stroke="none">
<path d="M0 1125 l0 -1125 1125 0 1125 0 0 1125 0 1125 -1125 0 -1125 0 0
-1125z m1307 839 c423 -87 717 -470 690 -898 -6 -88 -30 -203 -46 -219 -4 -4
-32 8 -62 27 -29 20 -72 44 -96 53 -24 10 -43 24 -43 31 0 7 12 38 27 69 20
43 26 72 26 122 0 133 -8 189 -28 212 -11 12 -80 50 -153 85 -99 47 -149 77
-191 117 -43 39 -79 61 -146 88 -84 33 -89 37 -100 74 -21 71 -56 128 -113
183 -43 42 -52 56 -41 63 23 14 194 10 276 -7z m-381 -75 c67 -34 157 -118
175 -161 6 -16 10 -30 8 -32 -2 -2 -38 -1 -79 3 -66 6 -81 11 -122 43 -49 37
-112 63 -189 76 -61 10 -57 30 16 69 76 41 116 42 191 2z m-166 -175 c38 -8
79 -23 91 -33 20 -16 20 -17 -36 -56 l-57 -39 -117 -1 c-92 -1 -128 -6 -175
-23 -84 -31 -96 -19 -46 51 55 78 77 99 111 107 57 13 156 11 229 -6z m468
-129 c40 -15 105 -51 144 -80 46 -34 99 -62 152 -80 181 -62 211 -105 58 -82
-63 9 -72 5 -72 -32 0 -36 32 -69 75 -77 20 -3 42 -16 50 -27 21 -30 19 -80
-4 -108 -18 -22 -28 -24 -148 -29 -136 -5 -157 -12 -195 -59 l-23 -29 -125 60
c-216 104 -284 163 -316 277 -37 125 24 256 134 292 53 17 192 4 270 -26z
m-560 -97 c2 -10 -16 -29 -52 -53 -74 -49 -168 -151 -200 -218 -40 -81 -56
-150 -63 -270 -6 -108 -18 -142 -41 -114 -38 45 -63 279 -44 401 9 57 17 75
44 104 54 56 148 114 233 144 87 31 118 32 123 6z m74 -114 c3 -16 11 -57 17
-92 27 -167 102 -248 341 -372 91 -46 203 -110 250 -141 95 -64 242 -209 285
-284 l29 -48 -34 -28 c-78 -65 -294 -154 -326 -134 -8 6 -30 44 -48 85 -68
157 -140 244 -339 412 -130 110 -180 170 -229 273 -52 111 -50 272 4 340 25
32 40 28 50 -11z m-172 -179 c-23 -144 50 -279 302 -557 114 -126 190 -238
215 -316 23 -73 15 -79 -86 -63 -171 26 -367 119 -444 210 -106 127 -136 612
-46 757 39 64 72 47 59 -31z m1120 -214 c0 -14 -9 -41 -20 -59 -11 -18 -20
-39 -20 -47 0 -31 -30 -45 -101 -45 -67 0 -71 1 -114 41 -49 45 -54 65 -27 99
15 18 33 24 103 31 47 4 98 15 114 23 26 14 31 14 47 -1 10 -9 18 -28 18 -42z
m92 -146 c52 -41 108 -107 108 -128 0 -37 -140 -212 -163 -205 -6 3 -31 40
-55 84 -23 43 -56 96 -72 116 -37 45 -38 58 -4 58 41 0 64 18 84 66 24 54 41
56 102 9z"/>
<path d="M1173 1481 c-73 -19 -76 -59 -6 -81 21 -7 53 -21 72 -31 26 -15 36
-17 47 -8 18 15 18 93 0 108 -19 16 -74 22 -113 12z"/>
</g>
</svg>
